<svg xmlns="http://www.w3.org/2000/svg" viewBox="0 0 1200 675" role="img" aria-labelledby="title">
  <title id="title">Composable content blocks</title>
  <defs><linearGradient id="bg" x1="0" y1="0" x2="1" y2="1"><stop stop-color="#111827"/><stop offset="1" stop-color="#312e81"/></linearGradient></defs>
  <rect width="1200" height="675" fill="url(#bg)"/>
  <g transform="translate(185 120)">
    <rect x="0" y="0" width="355" height="190" rx="32" fill="#818cf8"/>
    <rect x="385" y="0" width="260" height="190" rx="32" fill="#c084fc"/>
    <rect x="675" y="0" width="155" height="190" rx="32" fill="#f0abfc"/>
    <rect x="0" y="220" width="230" height="190" rx="32" fill="#5eead4"/>
    <rect x="260" y="220" width="360" height="190" rx="32" fill="#34d399"/>
    <rect x="650" y="220" width="180" height="190" rx="32" fill="#fbbf24"/>
    <g fill="#111827" opacity=".55">
      <rect x="45" y="48" width="180" height="18" rx="9"/><rect x="45" y="88" width="250" height="12" rx="6"/>
      <circle cx="435" cy="66" r="28"/><rect x="480" y="55" width="105" height="17" rx="8"/>
      <rect x="305" y="275" width="255" height="20" rx="10"/><rect x="305" y="320" width="190" height="12" rx="6"/>
    </g>
  </g>
</svg>
